<svg xmlns="http://www.w3.org/2000/svg" width="23.875" height="23.875" viewBox="0 0 23.875 23.875">
  <path id="ic_shopping_cart_24px" d="M8.163,21.1a2.387,2.387,0,1,0,2.388,2.387A2.384,2.384,0,0,0,8.163,21.1ZM1,2V4.387H3.388l4.3,9.061L6.073,16.373a2.308,2.308,0,0,0-.3,1.146,2.4,2.4,0,0,0,2.388,2.387H22.488V17.519H8.664a.3.3,0,0,1-.3-.3l.036-.143,1.074-1.946h8.894a2.376,2.376,0,0,0,2.089-1.23l4.274-7.747a1.166,1.166,0,0,0,.143-.573,1.2,1.2,0,0,0-1.194-1.194H6.026L4.9,2H1ZM20.1,21.1a2.387,2.387,0,1,0,2.388,2.387A2.384,2.384,0,0,0,20.1,21.1Z" transform="translate(-1 -2)" fill="#fff"/>
</svg>
