<svg xmlns="http://www.w3.org/2000/svg" width="34.875" height="34.875" viewBox="0 0 34.875 34.875">
  <path id="Subtraction_1" data-name="Subtraction 1" d="M17.438,34.875A17.435,17.435,0,0,1,5.109,5.108a17.437,17.437,0,0,1,24.658,24.66A17.323,17.323,0,0,1,17.438,34.875Zm-2.2-11.936h4.4a3.3,3.3,0,0,0,6.6,0h1.65a.549.549,0,0,0,.547-.552v-1.1a.549.549,0,0,0-.547-.552h-.553V17.021a1.653,1.653,0,0,0-.48-1.165l-3.436-3.436a1.672,1.672,0,0,0-1.166-.481H20.742V10.288A1.654,1.654,0,0,0,19.09,8.636h-11a1.654,1.654,0,0,0-1.652,1.652v11A1.653,1.653,0,0,0,8.09,22.939h.547a3.3,3.3,0,0,0,6.6,0Zm7.7,1.647a1.649,1.649,0,1,1,1.646-1.647A1.653,1.653,0,0,1,22.941,24.587Zm-11,0a1.649,1.649,0,1,1,1.652-1.647A1.651,1.651,0,0,1,11.939,24.587Zm13.748-7.149H20.742V13.586h1.514l3.432,3.436v.415Z" fill="#00b2d5"/>
</svg>
