<svg xmlns="http://www.w3.org/2000/svg" width="25.671" height="16.677" viewBox="0 0 25.671 16.677">
  <path id="vehicle" d="M23.512,8.283,22.02,6.361a.766.766,0,0,0-.083-.085L19.747,1.92a.753.753,0,0,0-.672-.415H15.91V.74s-.364-.759-.783-.74H2.48a.732.732,0,0,0-.758.74.768.768,0,0,0,.759.765H14.358v.031L4.807,1.505,4.42,3.1H-.008a.752.752,0,0,0-.752.787.768.768,0,0,0,.775.718h4.04L3.7,6.068h-4.95A.752.752,0,0,0-2,6.854a.768.768,0,0,0,.775.718H3.338L2.974,9.078H-.021a.752.752,0,0,0-.752.787A.768.768,0,0,0,0,10.583H2.609l-.616,2.544a.746.746,0,0,0-.254.594.768.768,0,0,0,.775.718H4.462a3.031,3.031,0,0,0,5.85,0h4.521a3.031,3.031,0,0,0,5.85,0h2.229a.759.759,0,0,0,.758-.759V8.749A.755.755,0,0,0,23.512,8.283Zm-7.6,2.955h0l-.006,0Zm3.365-.222v0l0,0ZM15.911,3.011h2.7l1.537,3.057H15.911V3.011Zm-7,8.009-.006,0h0Zm-3.034,0,0,0v0Zm1.514,4.143a1.518,1.518,0,1,1,1.518-1.518A1.52,1.52,0,0,1,7.387,15.159Zm10.371,0a1.518,1.518,0,1,1,1.518-1.518A1.52,1.52,0,0,1,17.759,15.159Z" transform="translate(2 0)"/>
</svg>
